<svg width="173" height="38" viewBox="0 0 173 38" fill="none" xmlns="http://www.w3.org/2000/svg">
<path fill-rule="evenodd" clip-rule="evenodd" d="M14.3046 6.33985L15.3874 0C15.5362 0.0781491 15.6787 0.159554 15.8148 0.237703C35.6126 11.3512 38.4969 23.9397 24.4741 38C24.3697 35.7532 23.9264 33.819 23.1444 32.2039C29.4418 22.7837 26.4973 14.1613 14.3046 6.33985Z" fill="#6541B6"/>
<path fill-rule="evenodd" clip-rule="evenodd" d="M8.25403 10.8953L9.359 4.4838C10.6065 5.18062 11.7874 5.88397 12.8987 6.59708C25.0883 14.4185 28.036 23.0409 21.7385 32.4612C20.5797 34.187 19.1075 35.9453 17.3186 37.733C17.2142 35.4536 16.7107 33.5357 15.8084 31.9858C20.4848 24.3402 17.9645 17.31 8.25403 10.8953Z" fill="#A371F7"/>
<path fill-rule="evenodd" clip-rule="evenodd" d="M3.35925 9.06531C4.62254 9.76214 5.794 10.4752 6.87681 11.2014C16.5873 17.6129 19.1044 24.643 14.4312 32.2919C13.38 34.0177 11.9584 35.776 10.1696 37.5637C9.90046 31.6439 6.50954 28.6482 0 28.5863L3.35925 9.06531Z" fill="#CFBEF5"/>
<path d="M39.2851 27.5769L45.1583 26.3363C45.3831 27.8862 46.5134 28.6221 48.5081 28.6221C49.2616 28.6221 49.8252 28.5049 50.2779 28.1956C50.7307 27.8862 50.9555 27.5378 50.9555 27.0722C50.9555 26.3753 50.3159 25.8706 49.0716 25.6394L45.2311 24.8645C41.5426 24.1676 39.7347 22.3083 39.7347 19.2084C39.7347 17.2319 40.4883 15.6461 41.9922 14.4446C43.4993 13.243 45.4559 12.6244 47.8653 12.6244C50.2747 12.6244 52.0826 13.1291 53.5865 14.1352C55.0936 15.1414 56.0719 16.4993 56.4487 18.2023L50.9523 19.3256C50.8383 18.707 50.4995 18.1632 49.936 17.6975C49.3724 17.271 48.6569 17.0398 47.7893 17.0398C47.0358 17.0398 46.4722 17.1961 46.1335 17.5054C45.7947 17.8148 45.6427 18.1632 45.6427 18.5507C45.6427 19.2475 46.0955 19.7131 47.0738 19.9052L51.5159 20.8365C53.2477 21.224 54.5269 21.9599 55.4324 22.9661C56.2967 23.9723 56.7495 25.2129 56.7495 26.6847C56.7495 28.7752 55.9579 30.4033 54.378 31.5267C52.7981 32.6891 50.7275 33.2297 48.1661 33.2297C45.7567 33.2297 43.762 32.764 42.141 31.836C40.5231 30.9047 39.5796 29.472 39.2788 27.5736L39.2851 27.5769Z" fill="white"/>
<path d="M86.4159 13.2072L80.3559 32.6924H75.1223L71.7346 22.1553L68.3088 32.6924H63.0752L57.0153 13.2072H62.9264L66.0134 23.6661L69.5911 13.2072H73.8464L77.4241 23.7052L80.511 13.2072H86.4222H86.4159Z" fill="white"/>
<path d="M106.226 22.9302V24.5193H92.3715C92.5963 25.6817 93.087 26.6097 93.8406 27.2708C94.5561 27.9676 95.4204 28.2769 96.4368 28.2769C98.3206 28.2769 99.6377 27.541 100.464 26.0301L105.808 27.1535C104.979 29.1691 103.776 30.7158 102.158 31.7253C100.54 32.7314 98.6182 33.2361 96.4368 33.2361C93.6506 33.2361 91.2792 32.3049 89.3573 30.3707C87.4007 28.4332 86.4572 25.9552 86.4572 22.9335C86.4572 19.9117 87.3975 17.4728 89.3573 15.5354C91.276 13.5979 93.6506 12.6308 96.4716 12.6308C99.2926 12.6308 101.477 13.5979 103.361 15.4572C105.207 17.3556 106.147 19.8336 106.223 22.9335L106.226 22.9302ZM96.4748 17.6617C95.5724 17.6617 94.7809 17.9319 94.0274 18.4757C93.2738 19.0195 92.7482 19.7912 92.4823 20.7225H100.274C99.9733 19.7163 99.5206 18.9804 98.843 18.4367C98.1655 17.9319 97.3739 17.6617 96.4716 17.6617H96.4748Z" fill="white"/>
<path d="M127.126 22.9302V24.5193H113.271C113.496 25.6817 113.987 26.6097 114.74 27.2708C115.456 27.9676 116.32 28.2769 117.336 28.2769C119.22 28.2769 120.537 27.541 121.364 26.0301L126.711 27.1535C125.882 29.1691 124.679 30.7158 123.061 31.7253C121.443 32.7314 119.521 33.2361 117.339 33.2361C114.553 33.2361 112.182 32.3049 110.263 30.3707C108.307 28.4332 107.363 25.9552 107.363 22.9335C107.363 19.9117 108.303 17.4728 110.263 15.5354C112.182 13.5979 114.556 12.6308 117.377 12.6308C120.198 12.6308 122.383 13.5979 124.267 15.4572C126.113 17.3556 127.053 19.8336 127.129 22.9335L127.126 22.9302ZM117.377 17.6617C116.475 17.6617 115.684 17.9319 114.93 18.4757C114.177 19.0195 113.651 19.7912 113.385 20.7225H121.177C120.876 19.7163 120.423 18.9804 119.746 18.4367C119.068 17.9319 118.277 17.6617 117.374 17.6617H117.377Z" fill="white"/>
<path d="M141.329 12.6243C143.514 12.6243 145.284 13.3993 146.639 14.8711C147.994 16.3429 148.671 18.3194 148.671 20.7193V32.65H142.684V22.0348C142.684 20.9114 142.384 19.9834 141.782 19.2833C141.18 18.5864 140.389 18.199 139.449 18.199C138.207 18.199 137.226 18.6646 136.548 19.5535C135.871 20.4457 135.532 21.8003 135.532 23.6205V32.6468H129.507V13.2007H135.532V15.06C137.039 13.4319 138.958 12.6211 141.329 12.6211V12.6243Z" fill="white"/>
<path d="M172.997 32.6533H165.278L159.142 25.6427H158.05V32.6533H152.024V4.76382H158.05V19.8336H158.879L164.866 13.2104H172.132L163.85 22.4679L173 32.6565L172.997 32.6533Z" fill="white"/>
</svg>
