<svg width="173" height="38" viewBox="0 0 173 38" fill="none" xmlns="http://www.w3.org/2000/svg">
<g clip-path="url(#clip0_51080_523)">
<path fill-rule="evenodd" clip-rule="evenodd" d="M14.3047 6.33985L15.3875 0C15.5363 0.0781491 15.6788 0.159554 15.8149 0.237703C35.6127 11.3512 38.497 23.9397 24.4742 38C24.3698 35.7532 23.9265 33.819 23.1445 32.2039C29.4419 22.7837 26.4974 14.1613 14.3047 6.33985Z" fill="#A371F7"/>
<path fill-rule="evenodd" clip-rule="evenodd" d="M8.25415 10.8954L9.35912 4.48389C10.6066 5.18071 11.7875 5.88406 12.8988 6.59717C25.0884 14.4186 28.0361 23.041 21.7386 32.4613C20.5798 34.1871 19.1076 35.9454 17.3187 37.7331C17.2143 35.4537 16.7108 33.5358 15.8085 31.9859C20.4849 24.3403 17.9646 17.3101 8.25415 10.8954Z" fill="#A5D6FF"/>
<path fill-rule="evenodd" clip-rule="evenodd" d="M3.35925 9.06543C4.62254 9.76226 5.794 10.4753 6.87681 11.2015C16.5873 17.613 19.1044 24.6431 14.4312 32.292C13.38 34.0178 11.9584 35.7761 10.1696 37.5638C9.90046 31.644 6.50954 28.6483 0 28.5864L3.35925 9.06543Z" fill="#AFF5B4"/>
<path d="M39.2851 27.577L45.1583 26.3364C45.3831 27.8863 46.5134 28.6222 48.5081 28.6222C49.2616 28.6222 49.8252 28.505 50.2779 28.1957C50.7307 27.8863 50.9555 27.5379 50.9555 27.0723C50.9555 26.3754 50.3159 25.8707 49.0716 25.6395L45.2311 24.8646C41.5426 24.1677 39.7347 22.3084 39.7347 19.2085C39.7347 17.232 40.4883 15.6462 41.9922 14.4447C43.4993 13.2431 45.4559 12.6245 47.8653 12.6245C50.2747 12.6245 52.0826 13.1292 53.5865 14.1353C55.0936 15.1415 56.0719 16.4994 56.4487 18.2024L50.9523 19.3257C50.8383 18.7071 50.4995 18.1633 49.936 17.6976C49.3724 17.2711 48.6569 17.0399 47.7893 17.0399C47.0358 17.0399 46.4722 17.1962 46.1335 17.5055C45.7947 17.8149 45.6427 18.1633 45.6427 18.5508C45.6427 19.2476 46.0955 19.7132 47.0738 19.9053L51.5159 20.8366C53.2477 21.2241 54.5269 21.96 55.4324 22.9662C56.2967 23.9724 56.7495 25.213 56.7495 26.6848C56.7495 28.7753 55.9579 30.4034 54.378 31.5268C52.7981 32.6892 50.7275 33.2298 48.1661 33.2298C45.7567 33.2298 43.762 32.7641 42.141 31.8361C40.5231 30.9048 39.5796 29.4721 39.2788 27.5737L39.2851 27.577Z" fill="#101215"/>
<path d="M86.416 13.2073L80.356 32.6925H75.1224L71.7347 22.1554L68.3089 32.6925H63.0753L57.0154 13.2073H62.9265L66.0135 23.6662L69.5912 13.2073H73.8465L77.4242 23.7053L80.5111 13.2073H86.4223H86.416Z" fill="#101215"/>
<path d="M106.226 22.9303V24.5194H92.3716C92.5964 25.6818 93.0871 26.6098 93.8407 27.2709C94.5562 27.9677 95.4205 28.277 96.4369 28.277C98.3207 28.277 99.6378 27.5411 100.464 26.0302L105.808 27.1536C104.979 29.1692 103.776 30.7159 102.158 31.7254C100.54 32.7315 98.6183 33.2362 96.4369 33.2362C93.6507 33.2362 91.2793 32.305 89.3574 30.3708C87.4008 28.4333 86.4573 25.9553 86.4573 22.9336C86.4573 19.9118 87.3976 17.4729 89.3574 15.5355C91.2761 13.598 93.6507 12.6309 96.4717 12.6309C99.2927 12.6309 101.477 13.598 103.361 15.4573C105.207 17.3557 106.147 19.8337 106.223 22.9336L106.226 22.9303ZM96.4749 17.6618C95.5725 17.6618 94.781 17.932 94.0275 18.4758C93.2739 19.0196 92.7483 19.7913 92.4824 20.7226H100.274C99.9734 19.7164 99.5207 18.9805 98.8431 18.4368C98.1656 17.932 97.374 17.6618 96.4717 17.6618H96.4749Z" fill="#101215"/>
<path d="M127.126 22.9303V24.5194H113.271C113.496 25.6818 113.987 26.6098 114.74 27.2709C115.456 27.9677 116.32 28.277 117.336 28.277C119.22 28.277 120.537 27.5411 121.364 26.0302L126.711 27.1536C125.882 29.1692 124.679 30.7159 123.061 31.7254C121.443 32.7315 119.521 33.2362 117.339 33.2362C114.553 33.2362 112.182 32.305 110.263 30.3708C108.307 28.4333 107.363 25.9553 107.363 22.9336C107.363 19.9118 108.303 17.4729 110.263 15.5355C112.182 13.598 114.556 12.6309 117.377 12.6309C120.198 12.6309 122.383 13.598 124.267 15.4573C126.113 17.3557 127.053 19.8337 127.129 22.9336L127.126 22.9303ZM117.377 17.6618C116.475 17.6618 115.684 17.932 114.93 18.4758C114.177 19.0196 113.651 19.7913 113.385 20.7226H121.177C120.876 19.7164 120.423 18.9805 119.746 18.4368C119.068 17.932 118.277 17.6618 117.374 17.6618H117.377Z" fill="#101215"/>
<path d="M141.329 12.6243C143.514 12.6243 145.284 13.3993 146.639 14.8711C147.994 16.3429 148.671 18.3194 148.671 20.7193V32.65H142.684V22.0348C142.684 20.9114 142.384 19.9834 141.782 19.2833C141.18 18.5864 140.389 18.199 139.449 18.199C138.207 18.199 137.226 18.6646 136.548 19.5535C135.871 20.4457 135.532 21.8003 135.532 23.6205V32.6468H129.507V13.2007H135.532V15.06C137.039 13.4319 138.958 12.6211 141.329 12.6211V12.6243Z" fill="#101215"/>
<path d="M172.997 32.6534H165.278L159.142 25.6428H158.05V32.6534H152.024V4.76392H158.05V19.8337H158.879L164.866 13.2105H172.132L163.85 22.468L173 32.6566L172.997 32.6534Z" fill="#101215"/>
</g>
<defs>
<clipPath id="clip0_51080_523">
<rect width="173" height="38" fill="white"/>
</clipPath>
</defs>
</svg>
