<?xml version="1.0" encoding="UTF-8" standalone="no"?>
<!DOCTYPE svg PUBLIC "-//W3C//DTD SVG 1.1//EN" "http://www.w3.org/Graphics/SVG/1.1/DTD/svg11.dtd">
<svg width="100%" height="100%" viewBox="0 0 361 361" version="1.1" xmlns="http://www.w3.org/2000/svg" xmlns:xlink="http://www.w3.org/1999/xlink" xml:space="preserve" xmlns:serif="http://www.serif.com/" style="fill-rule:evenodd;clip-rule:evenodd;stroke-linejoin:round;stroke-miterlimit:2;">
    <g>
        <path d="M161.084,72.293L170.25,18C171.51,18.669 172.716,19.366 173.868,20.036C341.451,115.208 365.866,223.013 247.167,343.422C246.283,324.181 242.531,307.617 235.911,293.786C289.217,213.114 264.293,139.273 161.084,72.293Z" style="fill:rgb(163,113,247);"/>
        <path d="M109.869,111.304L119.222,56.398C129.781,62.365 139.778,68.388 149.185,74.495C252.366,141.476 277.318,215.316 224.012,295.989C214.203,310.768 201.74,325.826 186.598,341.135C185.714,321.615 181.452,305.191 173.814,291.917C213.399,226.443 192.065,166.238 109.869,111.304Z" style="fill:rgb(165,214,255);"/>
        <path d="M68.435,95.633C79.129,101.601 89.045,107.707 98.211,113.926C180.407,168.832 201.714,229.037 162.156,294.54C153.258,309.319 141.225,324.377 126.083,339.686C123.805,288.99 95.102,263.336 40,262.806L68.435,95.633Z" style="fill:rgb(175,245,180);"/>
    </g>
</svg>
