<svg width="350" height="44" viewBox="0 0 350 44" fill="none" xmlns="http://www.w3.org/2000/svg">
<rect x="0.5" y="0.5" width="349" height="43" rx="21.5" fill="white" stroke="#CFCFCF"/>
<path d="M23.196 18.138V16.878H30.658V18.138H27.62V27H26.248V18.138H23.196ZM30.6085 30.066V28.988H31.4905C32.1205 28.988 32.6245 28.89 32.9465 28.022L33.1845 27.364L30.4265 20.154H31.8125L33.8005 25.67L35.8305 20.154H37.1885L33.9545 28.54C33.4925 29.716 32.8065 30.206 31.7565 30.206C31.3225 30.206 30.9585 30.15 30.6085 30.066ZM38.2391 30.066V20.154H39.4291L39.5271 21.386C39.9891 20.448 40.9131 19.958 42.0051 19.958C43.9651 19.958 45.1831 21.428 45.1831 23.528C45.1831 25.614 44.0351 27.182 42.0051 27.182C40.9131 27.182 40.0031 26.72 39.5551 25.88V30.066H38.2391ZM39.5691 23.584C39.5691 24.984 40.3811 25.992 41.7251 25.992C43.0691 25.992 43.8671 24.984 43.8671 23.584C43.8671 22.17 43.0691 21.162 41.7251 21.162C40.3811 21.162 39.5691 22.156 39.5691 23.584ZM49.5876 27.168C47.5716 27.168 46.1856 25.712 46.1856 23.584C46.1856 21.442 47.5436 19.958 49.5316 19.958C51.4776 19.958 52.7516 21.302 52.7516 23.332V23.822L47.4596 23.836C47.5576 25.278 48.3136 26.076 49.6156 26.076C50.6376 26.076 51.3096 25.656 51.5336 24.872H52.7656C52.4296 26.342 51.2816 27.168 49.5876 27.168ZM49.5316 21.064C48.3836 21.064 47.6556 21.75 47.4876 22.954H51.4356C51.4356 21.82 50.6936 21.064 49.5316 21.064ZM57.3917 30.066V28.988H58.2737C58.9037 28.988 59.4077 28.89 59.7297 28.022L59.9677 27.364L57.2097 20.154H58.5957L60.5837 25.67L62.6137 20.154H63.9717L60.7377 28.54C60.2757 29.716 59.5897 30.206 58.5397 30.206C58.1057 30.206 57.7417 30.15 57.3917 30.066ZM64.3145 23.57C64.3145 21.456 65.8265 19.972 67.8845 19.972C69.9285 19.972 71.4405 21.456 71.4405 23.57C71.4405 25.684 69.9285 27.168 67.8845 27.168C65.8265 27.168 64.3145 25.684 64.3145 23.57ZM65.6445 23.57C65.6445 24.998 66.5545 25.992 67.8845 25.992C69.2005 25.992 70.1245 24.998 70.1245 23.57C70.1245 22.142 69.2005 21.148 67.8845 21.148C66.5545 21.148 65.6445 22.142 65.6445 23.57ZM77.4653 20.154H78.7673V27H77.5913L77.4513 25.964C77.0593 26.678 76.1493 27.168 75.1413 27.168C73.5453 27.168 72.6493 26.09 72.6493 24.41V20.154H73.9653V23.976C73.9653 25.446 74.5953 26.006 75.6033 26.006C76.8073 26.006 77.4653 25.236 77.4653 23.766V20.154ZM84.5966 20.098V21.302H84.0086C82.7626 21.302 81.9926 22.058 81.9926 23.374V27H80.6766V20.168H81.9086L81.9926 21.204C82.2726 20.49 82.9586 20.014 83.8966 20.014C84.1346 20.014 84.3306 20.042 84.5966 20.098ZM89.211 23.528C89.211 21.428 90.443 19.958 92.403 19.958C93.481 19.958 94.419 20.448 94.867 21.386L94.979 20.154H96.155V30.066H94.853V25.88C94.391 26.72 93.481 27.182 92.389 27.182C90.373 27.182 89.211 25.614 89.211 23.528ZM90.541 23.584C90.541 24.984 91.325 25.992 92.669 25.992C94.013 25.992 94.839 24.984 94.839 23.584C94.839 22.156 94.013 21.162 92.669 21.162C91.325 21.162 90.541 22.17 90.541 23.584ZM102.786 20.154H104.088V27H102.912L102.772 25.964C102.38 26.678 101.47 27.168 100.462 27.168C98.8656 27.168 97.9696 26.09 97.9696 24.41V20.154H99.2856V23.976C99.2856 25.446 99.9156 26.006 100.924 26.006C102.128 26.006 102.786 25.236 102.786 23.766V20.154ZM108.814 27.168C106.798 27.168 105.412 25.712 105.412 23.584C105.412 21.442 106.77 19.958 108.758 19.958C110.704 19.958 111.978 21.302 111.978 23.332V23.822L106.686 23.836C106.784 25.278 107.54 26.076 108.842 26.076C109.864 26.076 110.536 25.656 110.76 24.872H111.992C111.656 26.342 110.508 27.168 108.814 27.168ZM108.758 21.064C107.61 21.064 106.882 21.75 106.714 22.954H110.662C110.662 21.82 109.92 21.064 108.758 21.064ZM112.888 25.012H114.148C114.148 25.712 114.68 26.132 115.548 26.132C116.472 26.132 117.004 25.754 117.004 25.124C117.004 24.662 116.78 24.382 116.066 24.2L114.862 23.92C113.644 23.626 113.07 23.024 113.07 22.016C113.07 20.756 114.134 19.958 115.646 19.958C117.144 19.958 118.124 20.798 118.152 22.1H116.892C116.864 21.414 116.402 20.98 115.604 20.98C114.778 20.98 114.316 21.344 114.316 21.974C114.316 22.436 114.652 22.744 115.324 22.912L116.528 23.206C117.69 23.486 118.264 24.018 118.264 25.04C118.264 26.342 117.144 27.168 115.52 27.168C113.91 27.168 112.888 26.314 112.888 25.012ZM121.655 27H120.339V21.26H118.995V20.154H120.339V18.012H121.655V20.154H122.999V21.26H121.655V27ZM124.825 18.53C124.349 18.53 123.957 18.138 123.957 17.662C123.957 17.172 124.349 16.794 124.825 16.794C125.301 16.794 125.693 17.172 125.693 17.662C125.693 18.138 125.301 18.53 124.825 18.53ZM124.181 27V20.154H125.497V27H124.181ZM126.959 23.57C126.959 21.456 128.471 19.972 130.529 19.972C132.573 19.972 134.085 21.456 134.085 23.57C134.085 25.684 132.573 27.168 130.529 27.168C128.471 27.168 126.959 25.684 126.959 23.57ZM128.289 23.57C128.289 24.998 129.199 25.992 130.529 25.992C131.845 25.992 132.769 24.998 132.769 23.57C132.769 22.142 131.845 21.148 130.529 21.148C129.199 21.148 128.289 22.142 128.289 23.57ZM136.858 27H135.542V20.154H136.732L136.872 21.204C137.306 20.42 138.174 19.958 139.14 19.958C140.946 19.958 141.772 21.064 141.772 22.814V27H140.456V23.108C140.456 21.722 139.812 21.162 138.804 21.162C137.572 21.162 136.858 22.044 136.858 23.374V27ZM144.575 27.168C144.029 27.168 143.567 26.72 143.567 26.188C143.567 25.642 144.029 25.194 144.575 25.194C145.107 25.194 145.569 25.642 145.569 26.188C145.569 26.72 145.107 27.168 144.575 27.168ZM148.444 27.168C147.898 27.168 147.436 26.72 147.436 26.188C147.436 25.642 147.898 25.194 148.444 25.194C148.976 25.194 149.438 25.642 149.438 26.188C149.438 26.72 148.976 27.168 148.444 27.168ZM152.313 27.168C151.767 27.168 151.305 26.72 151.305 26.188C151.305 25.642 151.767 25.194 152.313 25.194C152.845 25.194 153.307 25.642 153.307 26.188C153.307 26.72 152.845 27.168 152.313 27.168Z" fill="#C4C4C4"/>
<rect x="310" y="4" width="36" height="36" rx="18" fill="#6541B6"/>
<rect x="310.5" y="4.5" width="35" height="35" rx="17.5" stroke="white" stroke-opacity="0.2"/>
<path d="M320.944 30.4532C320.805 30.3366 320.693 30.1908 320.616 30.0261C320.539 29.8614 320.5 29.6818 320.5 29.5001C320.5 29.3572 320.524 29.2154 320.572 29.0806L322.681 22.8345C322.702 22.7725 322.742 22.7187 322.795 22.6806C322.848 22.6425 322.912 22.622 322.977 22.622L328.625 22.622C328.711 22.6222 328.795 22.6047 328.874 22.5708C328.953 22.5368 329.024 22.487 329.082 22.4245C329.141 22.362 329.186 22.2882 329.215 22.2075C329.244 22.1268 329.256 22.0411 329.25 21.9556C329.236 21.7949 329.161 21.6454 329.042 21.5372C328.922 21.429 328.766 21.37 328.605 21.372L322.98 21.372C322.914 21.372 322.851 21.3515 322.797 21.3134C322.744 21.2752 322.704 21.2214 322.684 21.1595L320.574 14.9134C320.49 14.6738 320.481 14.4142 320.548 14.1692C320.615 13.9242 320.755 13.7054 320.949 13.542C321.144 13.3786 321.383 13.2784 321.636 13.2545C321.889 13.2307 322.143 13.2845 322.365 13.4087L335.49 20.9064C335.683 21.0151 335.844 21.1733 335.956 21.3648C336.068 21.5562 336.127 21.774 336.127 21.9958C336.127 22.2176 336.068 22.4354 335.956 22.6269C335.844 22.8183 335.683 22.9765 335.49 23.0853L322.367 30.586C322.145 30.7131 321.889 30.7686 321.635 30.7448C321.38 30.7211 321.139 30.6192 320.944 30.4532Z" fill="white"/>
</svg>
