<svg xmlns="http://www.w3.org/2000/svg" version="1.1" xmlns:xlink="http://www.w3.org/1999/xlink" width="361" height="361"><svg width="361" height="361" viewBox="0 0 361 361" fill="none" xmlns="http://www.w3.org/2000/svg">
<path fill-rule="evenodd" clip-rule="evenodd" d="M161.084 72.2928L170.25 18C171.51 18.6692 172.716 19.3664 173.868 20.0356C341.451 115.208 365.866 223.013 247.167 343.422C246.283 324.181 242.531 307.617 235.911 293.786C289.217 213.114 264.293 139.273 161.084 72.2928Z" fill="#6541B6"></path>
<path fill-rule="evenodd" clip-rule="evenodd" d="M109.869 111.304L119.222 56.3976C129.781 62.3651 139.778 68.3884 149.185 74.4953C252.366 141.476 277.318 215.316 224.012 295.989C214.203 310.768 201.74 325.826 186.598 341.135C185.714 321.615 181.452 305.191 173.814 291.917C213.399 226.443 192.065 166.238 109.869 111.304Z" fill="#A371F7"></path>
<path fill-rule="evenodd" clip-rule="evenodd" d="M68.4352 95.6331C79.1286 101.601 89.0447 107.707 98.2105 113.926C180.407 168.832 201.714 229.037 162.156 294.54C153.258 309.319 141.225 324.377 126.083 339.686C123.805 288.99 95.1016 263.336 40 262.806L68.4352 95.6331Z" fill="#CFBEF5"></path>
</svg><style>@media (prefers-color-scheme: light) { :root { filter: none; } }
@media (prefers-color-scheme: dark) { :root { filter: none; } }
</style></svg>