<?xml version="1.0" standalone="no"?>
<!DOCTYPE svg PUBLIC "-//W3C//DTD SVG 20010904//EN"
 "http://www.w3.org/TR/2001/REC-SVG-20010904/DTD/svg10.dtd">
<svg version="1.0" xmlns="http://www.w3.org/2000/svg"
 width="1024.000000pt" height="1024.000000pt" viewBox="0 0 1024.000000 1024.000000"
 preserveAspectRatio="xMidYMid meet">
<metadata>
Created by potrace 1.14, written by Peter Selinger 2001-2017
</metadata>
<g transform="translate(0.000000,1024.000000) scale(0.100000,-0.100000)"
fill="#000000" stroke="none">
<path d="M4500 10161 c-7 -42 -16 -92 -20 -111 -5 -19 -11 -53 -15 -75 -7 -53
-33 -199 -45 -255 -5 -25 -12 -63 -16 -85 -3 -22 -8 -49 -9 -60 -4 -22 -41
-222 -50 -270 -3 -16 -8 -41 -10 -55 -8 -52 -16 -96 -20 -110 -2 -8 -7 -35
-10 -60 -3 -25 -7 -52 -10 -60 -2 -8 -7 -31 -10 -50 -3 -19 -14 -82 -25 -140
-11 -58 -21 -116 -23 -130 -3 -14 -10 -58 -18 -99 -8 -50 -9 -76 -3 -78 40
-13 585 -370 804 -526 199 -142 542 -402 596 -452 6 -5 33 -28 60 -50 27 -22
64 -54 84 -71 19 -17 48 -42 64 -55 32 -27 43 -37 182 -164 733 -672 1233
-1397 1463 -2119 23 -71 43 -138 46 -150 2 -12 11 -50 20 -86 16 -63 20 -78
30 -130 30 -151 34 -184 54 -395 9 -89 6 -478 -3 -545 -3 -19 -7 -55 -10 -80
-7 -67 -16 -123 -37 -240 -25 -138 -25 -138 -39 -190 -7 -25 -14 -55 -16 -66
-16 -86 -146 -465 -200 -581 -13 -28 -24 -55 -24 -58 0 -7 -195 -401 -210
-425 -5 -8 -39 -67 -76 -130 -37 -63 -116 -191 -177 -283 l-110 -168 41 -87
c80 -170 145 -352 201 -562 33 -128 73 -323 86 -425 3 -22 7 -49 9 -60 9 -45
21 -174 31 -320 4 -55 8 -101 9 -102 5 -6 477 471 626 633 78 85 188 210 260
294 21 25 48 56 60 70 12 14 34 40 48 59 15 19 32 39 37 45 42 45 267 338 340
441 27 39 52 72 55 75 12 9 237 355 297 455 295 491 505 980 627 1462 24 93
58 253 71 336 3 17 7 43 10 57 37 203 52 633 32 880 -13 159 -53 413 -84 535
-8 33 -16 67 -18 75 -9 44 -38 147 -70 243 -72 223 -133 371 -244 597 -31 63
-72 142 -91 175 -19 33 -43 76 -54 97 -127 224 -380 581 -578 816 -45 53 -85
99 -88 102 -3 3 -43 48 -89 100 -88 99 -432 445 -537 540 -91 83 -261 231
-338 295 -26 22 -53 45 -59 50 -7 6 -46 38 -87 70 -41 33 -77 62 -80 65 -3 4
-63 51 -135 105 -71 55 -134 103 -140 107 -160 126 -684 487 -943 649 -180
113 -612 372 -682 409 -25 14 -52 30 -60 36 -8 6 -51 31 -95 54 -44 24 -84 46
-90 50 -5 4 -46 26 -90 50 -44 24 -134 73 -200 109 -66 36 -136 73 -156 82
l-37 17 -12 -77z"/>
<path d="M3064 8923 c-4 -27 -8 -50 -9 -53 0 -3 -5 -27 -10 -55 -4 -27 -9 -54
-11 -60 -1 -5 -9 -50 -18 -100 -9 -49 -18 -101 -21 -115 -4 -22 -10 -52 -21
-115 -2 -11 -13 -72 -24 -135 -24 -131 -23 -127 -44 -240 -8 -47 -18 -98 -21
-115 -2 -16 -14 -79 -25 -140 -12 -60 -23 -126 -26 -145 -3 -19 -11 -66 -19
-105 -7 -38 -16 -88 -20 -110 -14 -79 -18 -102 -30 -160 -6 -30 -3 -32 187
-155 152 -98 536 -365 592 -412 6 -4 80 -63 165 -129 85 -67 168 -134 185
-149 17 -15 87 -76 156 -136 142 -123 419 -397 530 -524 41 -47 80 -90 85 -96
6 -6 24 -28 40 -49 17 -21 35 -43 40 -49 6 -6 33 -40 60 -76 28 -36 53 -67 56
-70 4 -3 49 -68 101 -145 229 -338 381 -655 477 -989 33 -113 68 -268 77 -336
3 -25 12 -90 19 -145 12 -95 14 -541 2 -590 -2 -11 -7 -47 -11 -80 -4 -33 -11
-82 -16 -110 -5 -27 -12 -61 -14 -75 -10 -55 -58 -250 -82 -330 -91 -302 -283
-713 -471 -1007 -18 -29 -33 -57 -33 -62 0 -6 17 -39 38 -73 47 -77 122 -232
157 -325 27 -70 84 -236 91 -263 2 -8 10 -40 19 -70 8 -30 18 -68 21 -85 3
-16 10 -50 16 -75 5 -25 11 -56 13 -70 1 -14 7 -50 14 -80 17 -84 18 -90 26
-160 4 -36 9 -78 11 -95 2 -16 7 -77 10 -135 3 -58 8 -107 9 -109 6 -6 360
344 476 470 165 179 218 238 300 334 233 273 405 498 579 761 125 189 170 261
170 274 0 5 4 10 9 10 5 0 12 9 16 20 3 11 22 46 41 77 33 54 227 436 233 458
2 6 10 26 18 45 119 278 237 666 268 880 4 24 8 47 10 50 2 3 6 30 9 60 4 30
9 66 11 80 21 121 28 556 12 715 -49 491 -205 969 -465 1427 -132 233 -324
510 -497 717 -225 269 -581 631 -830 842 -22 19 -42 36 -45 39 -16 16 -190
159 -280 229 -58 46 -114 90 -125 100 -17 14 -184 139 -250 187 -118 85 -183
130 -390 269 -133 88 -250 166 -260 172 -11 7 -62 39 -113 70 -51 32 -112 70
-135 85 -23 15 -49 31 -57 35 -7 4 -43 25 -80 47 -62 38 -194 115 -270 158
-185 106 -280 159 -432 242 -97 53 -179 96 -181 96 -3 0 -8 -21 -13 -47z"/>
<path d="M1620 7618 c-7 -40 -14 -82 -16 -93 -2 -11 -8 -45 -14 -75 -6 -30
-12 -65 -14 -76 -4 -20 -13 -73 -21 -119 -2 -11 -11 -58 -20 -105 -8 -47 -22
-123 -31 -170 -12 -72 -36 -201 -59 -325 -3 -16 -8 -41 -10 -55 -21 -120 -59
-334 -85 -470 -17 -91 -33 -181 -36 -200 -2 -19 -9 -55 -14 -80 -10 -47 -30
-161 -35 -195 -2 -11 -6 -33 -9 -50 -12 -63 -79 -427 -117 -640 -11 -60 -24
-135 -30 -165 -5 -30 -12 -68 -14 -85 -3 -16 -7 -41 -10 -55 -12 -57 -26 -131
-29 -155 -2 -11 -6 -33 -9 -50 -4 -16 -9 -46 -12 -65 -3 -19 -14 -82 -25 -140
-29 -160 -30 -163 -36 -200 -4 -19 -7 -39 -8 -45 -2 -5 -7 -32 -11 -60 -5 -27
-10 -52 -10 -55 -3 -11 -15 -76 -19 -100 -2 -14 -11 -65 -21 -115 -9 -49 -18
-101 -20 -115 -3 -21 -72 -399 -116 -635 -6 -33 -13 -71 -15 -85 -3 -14 -7
-36 -9 -50 -11 -51 -15 -75 -20 -112 -3 -21 -15 -84 -25 -140 -11 -56 -19
-102 -17 -104 1 -1 74 -4 162 -8 213 -8 345 -17 435 -31 14 -2 48 -6 75 -10
55 -7 106 -14 139 -21 11 -2 46 -8 76 -14 91 -17 99 -18 204 -45 100 -26 302
-88 341 -105 11 -5 45 -19 75 -31 68 -25 284 -133 321 -160 15 -10 30 -19 33
-19 6 0 177 -119 186 -129 3 -3 28 -24 55 -45 72 -57 218 -208 290 -301 180
-232 309 -500 394 -825 43 -166 88 -458 95 -627 0 -17 3 -34 6 -37 3 -3 72 59
153 137 81 78 147 141 147 140 0 -2 28 27 63 64 34 37 90 95 125 128 34 34 62
68 62 75 0 7 3 10 7 7 3 -4 17 9 30 28 13 19 28 35 33 35 6 0 10 7 10 15 0 8
5 15 12 15 6 0 9 2 6 6 -3 3 14 25 38 50 24 24 42 44 39 44 -3 0 3 9 12 19
111 119 156 178 147 192 -4 8 -3 9 4 5 7 -4 12 -4 12 1 0 7 16 28 70 91 22 26
99 142 227 342 368 572 577 1116 638 1655 21 190 21 514 0 624 -1 9 -6 45 -10
81 -4 36 -8 67 -10 70 -2 3 -6 26 -10 50 -3 25 -15 81 -27 125 -11 44 -21 87
-23 95 -14 69 -90 289 -146 420 -40 92 -180 365 -190 368 -5 2 -9 8 -9 13 0
17 -145 240 -241 369 -137 186 -264 335 -449 525 -137 142 -324 318 -445 419
-38 32 -72 61 -75 65 -3 4 -25 22 -50 41 -25 19 -50 39 -56 45 -6 5 -28 24
-49 40 -21 17 -61 48 -89 70 -411 326 -1160 808 -1711 1100 -49 26 -109 58
-133 71 -23 13 -44 24 -46 24 -3 0 -10 -33 -16 -72z"/>
</g>
</svg>
