<?xml version="1.0" encoding="UTF-8" standalone="no"?>
<!DOCTYPE svg PUBLIC "-//W3C//DTD SVG 1.1//EN" "http://www.w3.org/Graphics/SVG/1.1/DTD/svg11.dtd">
<svg width="100%" height="100%" viewBox="0 0 150 150" version="1.1" xmlns="http://www.w3.org/2000/svg" xmlns:xlink="http://www.w3.org/1999/xlink" xml:space="preserve" xmlns:serif="http://www.serif.com/" style="fill-rule:evenodd;clip-rule:evenodd;stroke-linejoin:round;stroke-miterlimit:2;">
    <g id="Artboard1" transform="matrix(0.616874,0,0,0.591977,-412.904,-49.2071)">
        <rect x="669.35" y="83.123" width="243.161" height="253.388" style="fill:none;"/>
        <g transform="matrix(0.846391,0,0,0.881988,1246.53,184.495)">
            <g transform="matrix(0.414957,0,0,0.414957,-669,-83)">
                <path d="M282.265,61.532L293.327,0C294.862,0.766 296.319,1.535 297.706,2.305C500.058,110.165 529.557,232.31 386.203,368.749C385.129,346.931 380.6,328.19 372.612,312.516C436.983,221.098 406.868,137.436 282.265,61.532Z" style="fill:rgb(163,113,247);"/>
            </g>
            <g transform="matrix(0.414957,0,0,0.414957,-669,-83)">
                <path d="M230.179,107.86L241.474,45.636C254.226,52.395 266.288,59.231 277.653,66.144C402.261,142.046 432.377,225.708 368.004,317.125C356.17,333.875 341.111,350.925 322.827,368.289C321.749,346.162 316.607,327.573 307.387,312.518C355.169,238.308 329.434,170.087 230.179,107.86Z" style="fill:rgb(165,214,255);"/>
            </g>
            <g transform="matrix(0.414957,0,0,0.414957,-669,-83)">
                <path d="M189.618,91.726C202.524,98.487 214.506,105.4 225.569,112.469C324.824,174.694 350.561,242.913 302.777,317.125C292.019,333.874 277.504,350.923 259.216,368.287C256.456,310.825 221.807,281.784 155.278,281.171L189.618,91.726Z" style="fill:rgb(175,245,180);"/>
            </g>
            <g transform="matrix(0.414957,0,0,0.414957,-669,-83)">
                <path d="M16.903,494.585L0,494.585C0.264,500.95 1.589,506.352 3.977,510.794C6.364,515.235 9.545,518.815 13.522,521.533C17.502,524.252 22.076,526.207 27.247,527.4C32.417,528.594 37.854,529.19 43.555,529.19C48.725,529.19 53.931,528.694 59.168,527.699C64.404,526.705 69.111,524.947 73.288,522.429C77.465,519.91 80.846,516.595 83.431,512.484C86.016,508.374 87.309,503.204 87.309,496.972C87.309,492.065 86.349,487.955 84.425,484.641C82.504,481.326 79.984,478.574 76.869,476.386C73.752,474.2 70.173,472.442 66.128,471.116C62.085,469.79 57.941,468.663 53.698,467.735C49.721,466.807 45.742,465.912 41.765,465.05C37.788,464.189 34.207,463.128 31.026,461.868C27.843,460.608 25.224,459.017 23.169,457.094C21.113,455.173 20.087,452.753 20.087,449.835C20.087,447.183 20.748,445.029 22.076,443.372C23.402,441.714 25.126,440.388 27.247,439.394C29.368,438.399 31.721,437.704 34.306,437.306C36.891,436.908 39.444,436.709 41.963,436.709C44.748,436.709 47.498,437.007 50.218,437.604C52.935,438.2 55.421,439.163 57.675,440.489C59.93,441.815 61.786,443.571 63.246,445.759C64.703,447.947 65.565,450.697 65.831,454.012L82.734,454.012C82.336,447.78 81.011,442.576 78.757,438.399C76.504,434.224 73.488,430.909 69.709,428.456C65.93,426.003 61.588,424.279 56.681,423.285C51.777,422.29 46.406,421.793 40.571,421.793C36.065,421.793 31.523,422.356 26.948,423.483C22.373,424.611 18.264,426.334 14.617,428.655C10.97,430.975 7.987,433.991 5.668,437.704C3.348,441.417 2.187,445.859 2.187,451.029C2.187,457.659 3.845,462.83 7.158,466.541C10.473,470.254 14.617,473.139 19.59,475.193C24.56,477.248 29.964,478.839 35.799,479.966C41.633,481.094 47.035,482.353 52.007,483.746C56.98,485.138 61.124,486.96 64.437,489.215C67.752,491.469 69.41,494.784 69.41,499.159C69.41,502.342 68.614,504.96 67.022,507.015C65.433,509.071 63.411,510.628 60.957,511.689C58.504,512.749 55.819,513.479 52.902,513.877C49.985,514.274 47.202,514.473 44.551,514.473C41.101,514.473 37.755,514.142 34.506,513.479C31.257,512.816 28.339,511.723 25.754,510.198C23.169,508.673 21.08,506.617 19.491,504.032C17.899,501.446 17.038,498.298 16.903,494.585Z" style="fill:rgb(20,0,54);fill-rule:nonzero;"/>
            </g>
            <g transform="matrix(0.414957,0,0,0.414957,-669,-83)">
                <path d="M199.546,527.002L232.364,424.18L214.862,424.18L191.79,508.307L191.392,508.307L169.914,424.18L151.417,424.18L130.732,508.307L130.336,508.307L107.066,424.18L88.371,424.18L121.384,527.002L139.684,527.002L160.366,445.262L160.764,445.262L181.647,527.002L199.546,527.002Z" style="fill:rgb(20,0,54);fill-rule:nonzero;"/>
            </g>
            <g transform="matrix(0.414957,0,0,0.414957,-669,-83)">
                <path d="M311.585,465.746L252.516,465.746C252.782,461.769 253.644,458.023 255.101,454.51C256.561,450.996 258.548,447.913 261.068,445.262C263.587,442.61 266.604,440.521 270.119,438.996C273.632,437.471 277.576,436.709 281.953,436.709C286.196,436.709 290.074,437.471 293.587,438.996C297.1,440.521 300.149,442.576 302.734,445.162C305.322,447.748 307.375,450.83 308.901,454.41C310.426,457.99 311.321,461.769 311.585,465.746ZM327.895,494.386L311.187,494.386C309.729,501.148 306.713,506.186 302.138,509.501C297.563,512.816 291.696,514.473 284.538,514.473C278.967,514.473 274.129,513.545 270.018,511.689C265.909,509.832 262.528,507.347 259.876,504.231C257.223,501.115 255.302,497.534 254.108,493.492C252.914,489.447 252.384,485.17 252.516,480.663L329.484,480.663C329.75,474.431 329.187,467.867 327.794,460.974C326.402,454.079 323.883,447.714 320.238,441.881C316.59,436.046 311.752,431.24 305.717,427.461C299.685,423.682 292.094,421.793 282.946,421.793C275.918,421.793 269.455,423.119 263.554,425.771C257.654,428.422 252.549,432.135 248.24,436.908C243.931,441.682 240.583,447.316 238.196,453.813C235.811,460.311 234.617,467.47 234.617,475.293C234.883,483.116 236.041,490.342 238.097,496.972C240.152,503.602 243.234,509.302 247.346,514.075C251.457,518.849 256.528,522.562 262.561,525.212C268.593,527.864 275.72,529.19 283.94,529.19C295.609,529.19 305.286,526.273 312.979,520.44C320.669,514.606 325.639,505.921 327.895,494.386Z" style="fill:rgb(20,0,54);fill-rule:nonzero;"/>
            </g>
            <g transform="matrix(0.414957,0,0,0.414957,-669,-83)">
                <path d="M410.099,465.746L351.031,465.746C351.297,461.769 352.158,458.023 353.616,454.51C355.076,450.996 357.063,447.913 359.582,445.262C362.102,442.61 365.118,440.521 368.633,438.996C372.146,437.471 376.09,436.709 380.465,436.709C384.708,436.709 388.588,437.471 392.101,438.996C395.614,440.521 398.663,442.576 401.248,445.162C403.836,447.748 405.889,450.83 407.415,454.41C408.941,457.99 409.836,461.769 410.099,465.746ZM426.409,494.386L409.701,494.386C408.244,501.148 405.228,506.186 400.653,509.501C396.078,512.816 390.21,514.473 383.053,514.473C377.482,514.473 372.643,513.545 368.532,511.689C364.423,509.832 361.042,507.347 358.391,504.231C355.737,501.115 353.816,497.534 352.622,493.492C351.429,489.447 350.899,485.17 351.031,480.663L427.999,480.663C428.265,474.431 427.702,467.867 426.308,460.974C424.916,454.079 422.397,447.714 418.752,441.881C415.105,436.046 410.266,431.24 404.232,427.461C398.199,423.682 390.608,421.793 381.461,421.793C374.432,421.793 367.969,423.119 362.069,425.771C356.168,428.422 351.064,432.135 346.755,436.908C342.446,441.682 339.098,447.316 336.71,453.813C334.325,460.311 333.131,467.47 333.131,475.293C333.397,483.116 334.556,490.342 336.611,496.972C338.667,503.602 341.749,509.302 345.86,514.075C349.971,518.849 355.043,522.562 361.075,525.212C367.107,527.864 374.235,529.19 382.454,529.19C394.124,529.19 403.801,526.273 411.493,520.44C419.183,514.606 424.154,505.921 426.409,494.386Z" style="fill:rgb(20,0,54);fill-rule:nonzero;"/>
            </g>
            <g transform="matrix(0.414957,0,0,0.414957,-669,-83)">
                <path d="M437.214,424.18L437.214,527.002L454.12,527.002L454.12,468.928C454.12,464.289 454.748,460.012 456.008,456.1C457.268,452.19 459.159,448.775 461.678,445.859C464.197,442.942 467.345,440.687 471.124,439.096C474.903,437.505 479.377,436.709 484.55,436.709C491.046,436.709 496.151,438.566 499.864,442.279C503.575,445.991 505.432,451.029 505.432,457.394L505.432,527.002L522.338,527.002L522.338,459.382C522.338,453.813 521.773,448.742 520.648,444.167C519.52,439.593 517.563,435.649 514.78,432.334C511.995,429.019 508.35,426.434 503.841,424.578C499.332,422.722 493.697,421.793 486.935,421.793C471.687,421.793 460.55,428.024 453.524,440.489L453.126,440.489L453.126,424.18L437.214,424.18Z" style="fill:rgb(20,0,54);fill-rule:nonzero;"/>
            </g>
            <g transform="matrix(0.414957,0,0,0.414957,-669,-83)">
                <path d="M540.501,385L540.501,527.002L557.407,527.002L557.407,488.021L573.319,473.304L608.52,527.002L630,527.002L586.245,461.57L627.017,424.18L604.345,424.18L557.407,469.127L557.407,385L540.501,385Z" style="fill:rgb(20,0,54);fill-rule:nonzero;"/>
            </g>
        </g>
    </g>
</svg>
