<svg width="306" height="68" viewBox="0 0 306 68" fill="none" xmlns="http://www.w3.org/2000/svg">
<path fill-rule="evenodd" clip-rule="evenodd" d="M25.3017 11.345L27.2169 0C27.4801 0.139846 27.7321 0.285518 27.973 0.425364C62.9909 20.3126 68.0927 42.8394 43.2895 68C43.1047 63.9794 42.3206 60.5183 40.9374 57.6281C52.0762 40.7709 46.868 25.3412 25.3017 11.345Z" fill="#6541B6"/>
<path fill-rule="evenodd" clip-rule="evenodd" d="M14.5997 19.4968L16.5542 8.02365C18.7606 9.27061 20.8495 10.5292 22.8152 11.8053C44.3759 25.8015 49.5897 41.2312 38.4509 58.0884C36.4012 61.1767 33.7972 64.3232 30.633 67.5222C30.4482 63.4434 29.5578 60.0113 27.9618 57.2377C36.2332 43.5561 31.7755 30.9758 14.5997 19.4968Z" fill="#A371F7"/>
<path fill-rule="evenodd" clip-rule="evenodd" d="M5.9418 16.2221C8.17628 17.4691 10.2483 18.7452 12.1636 20.0446C29.3394 31.5177 33.7915 44.098 25.5257 57.7854C23.6664 60.8737 21.1519 64.0202 17.9878 67.2192C17.5118 56.6259 11.514 51.2651 0 51.1544L5.9418 16.2221Z" fill="#CFBEF5"/>
<path d="M69.4872 49.3481L79.8755 47.128C80.2731 49.9016 82.2724 51.2185 85.8005 51.2185C87.1334 51.2185 88.1302 51.0087 88.931 50.4552C89.7319 49.9016 90.1295 49.2781 90.1295 48.4449C90.1295 47.1979 88.9982 46.2948 86.7974 45.8811L80.0043 44.4943C73.4801 43.2473 70.2824 39.9201 70.2824 34.3729C70.2824 30.836 71.6152 27.9983 74.2753 25.8482C76.941 23.698 80.4019 22.5909 84.6637 22.5909C88.9254 22.5909 92.1231 23.4941 94.7832 25.2946C97.4489 27.0951 99.1794 29.5249 99.8458 32.5724L90.1239 34.5827C89.9223 33.4756 89.323 32.5025 88.3262 31.6692C87.3294 30.9059 86.0637 30.4922 84.5293 30.4922C83.1964 30.4922 82.1996 30.7719 81.6004 31.3254C81.0012 31.879 80.7323 32.5025 80.7323 33.1959C80.7323 34.4428 81.5332 35.2761 83.2636 35.6199L91.1207 37.2864C94.184 37.9798 96.4465 39.2967 98.0481 41.0972C99.577 42.8977 100.378 45.1177 100.378 47.7515C100.378 51.4924 98.9778 54.4058 96.1833 56.4161C93.3888 58.4963 89.7263 59.4636 85.1957 59.4636C80.934 59.4636 77.4058 58.6303 74.5385 56.9697C71.6768 55.3032 70.008 52.7393 69.476 49.3422L69.4872 49.3481Z" fill="#ffffff"/>
<path d="M152.852 23.6339L142.133 58.5021H132.876L126.884 39.6462L120.824 58.5021H111.567L100.848 23.6339H111.304L116.764 42.3499L123.092 23.6339H130.619L136.947 42.4199L142.407 23.6339H152.863H152.852Z" fill="#ffffff"/>
<path d="M187.892 41.0331V43.8766H163.386C163.783 45.9568 164.651 47.6175 165.984 48.8003C167.25 50.0473 168.779 50.6009 170.576 50.6009C173.908 50.6009 176.238 49.284 177.7 46.5803L187.153 48.5906C185.686 52.1974 183.557 54.9652 180.696 56.7715C177.834 58.5721 174.435 59.4752 170.576 59.4752C165.648 59.4752 161.454 57.8087 158.054 54.3476C154.593 50.8805 152.924 46.4463 152.924 41.0389C152.924 35.6315 154.588 31.2672 158.054 27.8002C161.448 24.3332 165.648 22.6026 170.638 22.6026C175.628 22.6026 179.492 24.3332 182.824 27.6603C186.089 31.0574 187.752 35.4917 187.886 41.0389L187.892 41.0331ZM170.643 31.6051C169.047 31.6051 167.647 32.0888 166.314 33.0619C164.982 34.035 164.052 35.4159 163.582 37.0824H177.364C176.832 35.2819 176.031 33.965 174.832 32.9919C173.634 32.0888 172.234 31.6051 170.638 31.6051H170.643Z" fill="#ffffff"/>
<path d="M224.859 41.0331V43.8766H200.352C200.75 45.9568 201.618 47.6175 202.951 48.8003C204.217 50.0473 205.745 50.6009 207.543 50.6009C210.875 50.6009 213.205 49.284 214.667 46.5803L224.125 48.5906C222.658 52.1974 220.53 54.9652 217.668 56.7715C214.807 58.5721 211.407 59.4752 207.549 59.4752C202.62 59.4752 198.426 57.8087 195.032 54.3476C191.571 50.8805 189.902 46.4463 189.902 41.0389C189.902 35.6315 191.566 31.2672 195.032 27.8002C198.426 24.3332 202.626 22.6026 207.616 22.6026C212.606 22.6026 216.47 24.3332 219.802 27.6603C223.067 31.0574 224.73 35.4917 224.864 41.0389L224.859 41.0331ZM207.616 31.6051C206.02 31.6051 204.62 32.0888 203.287 33.0619C201.954 34.035 201.024 35.4159 200.554 37.0824H214.336C213.804 35.2819 213.003 33.965 211.805 32.9919C210.606 32.0888 209.206 31.6051 207.61 31.6051H207.616Z" fill="#ffffff"/>
<path d="M249.981 22.5909C253.845 22.5909 256.976 23.9777 259.373 26.6115C261.77 29.2452 262.968 32.7822 262.968 37.0766V58.4264H252.378V39.4307C252.378 37.4204 251.846 35.7597 250.782 34.5069C249.718 33.26 248.318 32.5666 246.655 32.5666C244.46 32.5666 242.723 33.3998 241.525 34.9906C240.327 36.5871 239.727 39.0111 239.727 42.2684V58.4206H229.07V23.6223H239.727V26.9494C242.393 24.036 245.787 22.5851 249.981 22.5851V22.5909Z" fill="#ffffff"/>
<path d="M305.994 58.4322H292.341L281.488 45.8869H279.556V58.4322H268.899V8.52475H279.556V35.4917H281.023L291.613 23.6397H304.466L289.815 40.2056L306 58.438L305.994 58.4322Z" fill="#ffffff"/>
</svg>
