<svg width="132" height="35" viewBox="0 0 132 35" fill="none" xmlns="http://www.w3.org/2000/svg">
<path d="M42.4466 22.8612H40C40.0382 23.7824 40.23 24.5644 40.5756 25.2074C40.9212 25.8501 41.3816 26.3683 41.9572 26.7617C42.5332 27.1552 43.1953 27.4382 43.9437 27.6109C44.6921 27.7836 45.479 27.87 46.3041 27.87C47.0524 27.87 47.8059 27.7981 48.5639 27.6542C49.3218 27.5102 50.0031 27.2558 50.6076 26.8914C51.2122 26.5267 51.7016 26.0469 52.0758 25.452C52.45 24.857 52.6371 24.1087 52.6371 23.2067C52.6371 22.4966 52.498 21.9016 52.2196 21.422C51.9415 20.9422 51.5768 20.5438 51.126 20.2272C50.6748 19.9107 50.1567 19.6563 49.5713 19.4644C48.9861 19.2725 48.3863 19.1093 47.7722 18.975C47.1966 18.8406 46.6207 18.7112 46.0451 18.5864C45.4694 18.4617 44.9511 18.3081 44.4907 18.1258C44.0299 17.9435 43.651 17.7132 43.3534 17.4349C43.0559 17.1568 42.9073 16.8065 42.9073 16.3842C42.9073 16.0004 43.0031 15.6886 43.1953 15.4487C43.3872 15.2088 43.6366 15.0169 43.9437 14.8729C44.2508 14.729 44.5912 14.6283 44.9654 14.5708C45.3396 14.5132 45.709 14.4844 46.0737 14.4844C46.4768 14.4844 46.8749 14.5275 47.2685 14.6138C47.6618 14.7002 48.0217 14.8394 48.3478 15.0314C48.6743 15.2233 48.9428 15.4775 49.1541 15.7942C49.3651 16.1108 49.4898 16.509 49.5283 16.9888H51.9749C51.9173 16.0867 51.7254 15.3335 51.3993 14.729C51.0732 14.1246 50.6366 13.6448 50.0896 13.2898C49.5426 12.9347 48.9142 12.6852 48.204 12.5413C47.4941 12.3973 46.7168 12.3255 45.8723 12.3255C45.22 12.3255 44.5626 12.4069 43.9004 12.5701C43.2382 12.7332 42.6436 12.9827 42.1157 13.3186C41.5878 13.6544 41.156 14.0909 40.8203 14.6283C40.4846 15.1657 40.3166 15.8087 40.3166 16.5569C40.3166 17.5166 40.5565 18.2651 41.036 18.8022C41.5159 19.3396 42.1157 19.7572 42.8354 20.0544C43.5548 20.3519 44.337 20.5822 45.1815 20.7454C46.026 20.9085 46.8077 21.0908 47.5275 21.2923C48.2473 21.4939 48.8471 21.7577 49.3266 22.0839C49.8064 22.4102 50.0463 22.89 50.0463 23.5233C50.0463 23.984 49.9311 24.3629 49.7008 24.6604C49.4707 24.9579 49.178 25.1833 48.8229 25.3368C48.4678 25.4904 48.0793 25.5959 47.657 25.6535C47.2348 25.7111 46.8319 25.7399 46.4482 25.7399C45.9489 25.7399 45.4647 25.6919 44.9944 25.5959C44.5241 25.4999 44.1018 25.3417 43.7276 25.121C43.3534 24.9003 43.0512 24.6028 42.8211 24.2286C42.5907 23.8543 42.466 23.3986 42.4466 22.8612Z" fill="white"/>
<path d="M68.8821 27.5533L73.6321 12.6709H71.099L67.7595 24.8474H67.7019L64.5932 12.6709H61.9159L58.922 24.8474H58.8648L55.4967 12.6709H52.7908L57.5691 27.5533H60.2177L63.2113 15.7223H63.2689L66.2914 27.5533H68.8821Z" fill="white"/>
<path d="M85.0985 18.6871H76.549C76.5875 18.1115 76.7122 17.5692 76.9232 17.0609C77.1345 16.5523 77.4221 16.1059 77.7867 15.7223C78.1514 15.3384 78.588 15.0361 79.0968 14.8153C79.6052 14.5946 80.1761 14.4844 80.8096 14.4844C81.4237 14.4844 81.985 14.5946 82.4935 14.8153C83.0019 15.0361 83.4433 15.3335 83.8175 15.7078C84.192 16.082 84.4892 16.5282 84.71 17.0464C84.9308 17.5645 85.0603 18.1115 85.0985 18.6871ZM87.4592 22.8324H85.0409C84.83 23.8112 84.3934 24.5403 83.7313 25.0201C83.0691 25.5 82.2198 25.7399 81.1838 25.7399C80.3775 25.7399 79.6771 25.6055 79.0821 25.3368C78.4874 25.0681 77.998 24.7084 77.6143 24.2573C77.2302 23.8063 76.9521 23.2881 76.7793 22.703C76.6066 22.1176 76.5299 21.4986 76.549 20.8462H87.6892C87.7278 19.9442 87.6463 18.9942 87.4446 17.9964C87.2432 16.9984 86.8785 16.0771 86.3509 15.2329C85.823 14.3884 85.1227 13.6928 84.2493 13.1458C83.3761 12.5988 82.2774 12.3255 80.9534 12.3255C79.9362 12.3255 79.0007 12.5174 78.1466 12.9012C77.2926 13.2849 76.5537 13.8223 75.9301 14.5132C75.3064 15.2041 74.8218 16.0196 74.4762 16.96C74.131 17.9004 73.9583 18.9366 73.9583 20.0689C73.9968 21.2013 74.1644 22.2471 74.4619 23.2067C74.7595 24.1663 75.2055 24.9914 75.8006 25.6823C76.3956 26.3732 77.1297 26.9106 78.0028 27.2942C78.8759 27.6781 79.9075 27.87 81.0972 27.87C82.7862 27.87 84.1869 27.4478 85.3003 26.6035C86.4133 25.759 87.1327 24.502 87.4592 22.8324Z" fill="white"/>
<path d="M99.3573 18.6871H90.8078C90.8463 18.1115 90.971 17.5692 91.182 17.0609C91.3933 16.5523 91.6809 16.1059 92.0455 15.7223C92.4102 15.3384 92.8468 15.0361 93.3556 14.8153C93.864 14.5946 94.4349 14.4844 95.0681 14.4844C95.6822 14.4844 96.2438 14.5946 96.7523 14.8153C97.2607 15.0361 97.7021 15.3335 98.0763 15.7078C98.4508 16.082 98.748 16.5282 98.9688 17.0464C99.1897 17.5645 99.3192 18.1115 99.3573 18.6871ZM101.718 22.8324H99.2997C99.0888 23.8112 98.6522 24.5403 97.99 25.0201C97.3279 25.5 96.4786 25.7399 95.4426 25.7399C94.6363 25.7399 93.9359 25.6055 93.3409 25.3368C92.7462 25.0681 92.2568 24.7084 91.8731 24.2573C91.489 23.8063 91.2109 23.2881 91.0382 22.703C90.8654 22.1176 90.7887 21.4986 90.8078 20.8462H101.948C101.987 19.9442 101.905 18.9942 101.703 17.9964C101.502 16.9984 101.137 16.0771 100.61 15.2329C100.082 14.3884 99.3815 13.6928 98.5081 13.1458C97.6349 12.5988 96.5362 12.3255 95.2122 12.3255C94.1949 12.3255 93.2595 12.5174 92.4054 12.9012C91.5514 13.2849 90.8125 13.8223 90.1889 14.5132C89.5652 15.2041 89.0806 16.0196 88.7351 16.96C88.3898 17.9004 88.217 18.9366 88.217 20.0689C88.2556 21.2013 88.4232 22.2471 88.7207 23.2067C89.0183 24.1663 89.4644 24.9914 90.0594 25.6823C90.6544 26.3732 91.3885 26.9106 92.2616 27.2942C93.1347 27.6781 94.1663 27.87 95.356 27.87C97.045 27.87 98.4457 27.4478 99.5591 26.6035C100.672 25.759 101.392 24.502 101.718 22.8324Z" fill="white"/>
<path d="M103.282 12.6709V27.5533H105.729V19.1477C105.729 18.4762 105.82 17.8571 106.002 17.291C106.185 16.725 106.458 16.2307 106.823 15.8087C107.188 15.3864 107.643 15.0602 108.19 14.8298C108.737 14.5995 109.385 14.4844 110.133 14.4844C111.074 14.4844 111.812 14.7531 112.35 15.2905C112.887 15.8278 113.156 16.557 113.156 17.4782V27.5533H115.603V17.7661C115.603 16.96 115.521 16.226 115.358 15.5639C115.195 14.9017 114.912 14.3308 114.509 13.851C114.106 13.3712 113.578 12.9972 112.925 12.7285C112.273 12.4598 111.457 12.3255 110.479 12.3255C108.272 12.3255 106.66 13.2273 105.643 15.0314H105.585V12.6709H103.282Z" fill="white"/>
<path d="M118.232 7V27.5533H120.679V21.9112L122.982 19.7811L128.077 27.5533H131.186L124.853 18.0827L130.754 12.6709H127.472L120.679 19.1765V7H118.232Z" fill="white"/>
<path fill-rule="evenodd" clip-rule="evenodd" d="M12.053 5.84037L13.1029 0C13.2486 0.0727336 13.3869 0.145662 13.5186 0.218779C32.7249 10.4564 35.5248 22.0498 21.9183 35C21.8164 32.9291 21.3865 31.1503 20.6282 29.6626C26.7381 20.9856 23.8798 13.0448 12.053 5.84037Z" fill="#A371F7"/>
<path fill-rule="evenodd" clip-rule="evenodd" d="M7.10938 10.2375L8.18138 4.33154C9.39175 4.97309 10.5367 5.62193 11.6154 6.27807C23.4426 13.4823 26.3011 21.4232 20.1911 30.1001C19.0678 31.6899 17.6385 33.3083 15.903 34.9564C15.8007 32.8561 15.3127 31.0917 14.4376 29.6628C18.9728 22.6191 16.5302 16.1439 7.10938 10.2375Z" fill="#A5D6FF"/>
<path fill-rule="evenodd" clip-rule="evenodd" d="M3.25938 8.70623C4.48434 9.34798 5.62159 10.0041 6.67172 10.675C16.0925 16.5812 18.5353 23.0562 14 30.1001C12.9788 31.6898 11.6011 33.308 9.86528 34.9561C9.60332 29.5021 6.31458 26.7457 0 26.6875L3.25938 8.70623Z" fill="#AFF5B4"/>
</svg>
