<svg width="237" height="172" viewBox="0 0 237 172" fill="none" xmlns="http://www.w3.org/2000/svg">
<path d="M0.0112028 159.348L10.3996 157.128C10.7972 159.902 12.7964 161.219 16.3246 161.219C17.6574 161.219 18.6542 161.009 19.4551 160.455C20.2559 159.902 20.6535 159.278 20.6535 158.445C20.6535 157.198 19.5223 156.295 17.3214 155.881L10.5284 154.494C4.00414 153.247 0.806429 149.92 0.806429 144.373C0.806429 140.836 2.13928 137.998 4.79937 135.848C7.46506 133.698 10.926 132.591 15.1877 132.591C19.4495 132.591 22.6472 133.494 25.3073 135.295C27.973 137.095 29.7034 139.525 30.3698 142.572L20.6479 144.583C20.4463 143.476 19.8471 142.502 18.8502 141.669C17.8534 140.906 16.5878 140.492 15.0533 140.492C13.7205 140.492 12.7236 140.772 12.1244 141.325C11.5252 141.879 11.2564 142.502 11.2564 143.196C11.2564 144.443 12.0572 145.276 13.7877 145.62L21.6447 147.286C24.7081 147.98 26.9705 149.297 28.5722 151.097C30.101 152.898 30.9019 155.118 30.9019 157.752C30.9019 161.492 29.5018 164.406 26.7073 166.416C23.9128 168.496 20.2503 169.464 15.7197 169.464C11.458 169.464 7.92988 168.63 5.06258 166.97C2.20088 165.303 0.532018 162.739 0 159.342L0.0112028 159.348Z" fill="#101215"/>
<path d="M83.3756 135.634L72.6569 170.502H63.3998L57.4076 151.646L51.3482 170.502H42.091L31.3723 135.634H41.8278L47.288 154.35L53.6162 135.634H61.1429L67.4711 154.42L72.9313 135.634H83.3868H83.3756Z" fill="#101215"/>
<path d="M118.416 153.033V155.877H93.9096C94.3072 157.957 95.1752 159.617 96.5081 160.8C97.7737 162.047 99.3026 162.601 101.1 162.601C104.432 162.601 106.762 161.284 108.224 158.58L117.677 160.591C116.21 164.197 114.081 166.965 111.22 168.772C108.358 170.572 104.959 171.475 101.1 171.475C96.1721 171.475 91.9775 169.809 88.5782 166.348C85.1173 162.881 83.4484 158.446 83.4484 153.039C83.4484 147.632 85.1117 143.267 88.5782 139.8C91.9719 136.333 96.1721 134.603 101.162 134.603C106.152 134.603 110.016 136.333 113.348 139.66C116.613 143.057 118.276 147.492 118.41 153.039L118.416 153.033ZM101.167 143.605C99.5714 143.605 98.1713 144.089 96.8385 145.062C95.5057 146.035 94.576 147.416 94.1056 149.082H107.888C107.356 147.282 106.555 145.965 105.356 144.992C104.158 144.089 102.758 143.605 101.162 143.605H101.167Z" fill="#101215"/>
<path d="M155.383 153.033V155.877H130.876C131.274 157.957 132.142 159.617 133.475 160.8C134.741 162.047 136.269 162.601 138.067 162.601C141.399 162.601 143.729 161.284 145.191 158.58L154.649 160.591C153.182 164.197 151.054 166.965 148.192 168.772C145.331 170.572 141.931 171.475 138.073 171.475C133.145 171.475 128.95 169.809 125.556 166.348C122.095 162.881 120.426 158.446 120.426 153.039C120.426 147.632 122.09 143.267 125.556 139.8C128.95 136.333 133.15 134.603 138.14 134.603C143.13 134.603 146.994 136.333 150.326 139.66C153.591 143.057 155.254 147.492 155.388 153.039L155.383 153.033ZM138.14 143.605C136.544 143.605 135.144 144.089 133.811 145.062C132.478 146.035 131.548 147.416 131.078 149.082H144.86C144.328 147.282 143.527 145.965 142.329 144.992C141.13 144.089 139.73 143.605 138.134 143.605H138.14Z" fill="#101215"/>
<path d="M180.505 134.591C184.369 134.591 187.5 135.978 189.897 138.611C192.294 141.245 193.492 144.782 193.492 149.077V170.426H182.902V151.431C182.902 149.42 182.37 147.76 181.306 146.507C180.242 145.26 178.842 144.567 177.179 144.567C174.984 144.567 173.247 145.4 172.049 146.991C170.851 148.587 170.251 151.011 170.251 154.268V170.421H159.594V135.622H170.251V138.949C172.917 136.036 176.311 134.585 180.505 134.585V134.591Z" fill="#101215"/>
<path d="M236.518 170.432H222.865L212.012 157.887H210.08V170.432H199.423V120.525H210.08V147.492H211.547L222.137 135.64H234.99L220.34 152.206L236.524 170.438L236.518 170.432Z" fill="#101215"/>
<path fill-rule="evenodd" clip-rule="evenodd" d="M111.673 18.6859L114.828 0C115.261 0.230334 115.676 0.470265 116.073 0.700599C173.75 33.456 182.153 70.559 141.3 112C140.996 105.378 139.705 99.6771 137.426 94.9169C155.773 67.152 147.194 41.7385 111.673 18.6859Z" fill="#6541B6"/>
<path fill-rule="evenodd" clip-rule="evenodd" d="M94.0466 32.1124L97.2657 13.2154C100.9 15.2692 104.34 17.3422 107.578 19.444C143.09 42.4967 151.677 67.9102 133.331 95.6751C129.955 100.762 125.666 105.944 120.454 111.213C120.15 104.495 118.683 98.8422 116.055 94.2739C129.678 71.7395 122.336 51.019 94.0466 32.1124Z" fill="#A371F7"/>
<path fill-rule="evenodd" clip-rule="evenodd" d="M79.7865 26.7188C83.4668 28.7726 86.8796 30.8744 90.0342 33.0146C118.324 51.9116 125.657 72.6321 112.042 95.176C108.98 100.263 104.838 105.445 99.627 110.714C98.843 93.2661 88.9642 84.4367 70 84.2543L79.7865 26.7188Z" fill="#CFBEF5"/>
</svg>
